<svg id="visual" viewBox="0 0 900 600" width="900" height="600" xmlns="http://www.w3.org/2000/svg" xmlns:xlink="http://www.w3.org/1999/xlink" version="1.1"><g transform="translate(450 300.025)"><path d="M88.9 -105.9C113.5 -85.3 130.6 -55.7 136.2 -24C141.8 7.6 135.8 41.3 119.8 69.2C103.7 97 77.5 119 47.3 130C17.1 141 -17.1 141 -47.3 130C-77.5 119 -103.7 97 -119.8 69.2C-135.8 41.3 -141.8 7.6 -136.2 -24C-130.6 -55.7 -113.5 -85.3 -88.9 -105.9C-64.3 -126.6 -32.1 -138.3 0 -138.3C32.1 -138.3 64.3 -126.6 88.9 -105.9" fill="#BB004B"></path></g></svg>